<?xml version="1.0" standalone="no"?>
<!DOCTYPE svg PUBLIC "-//W3C//DTD SVG 1.1//EN" "http://www.w3.org/Graphics/SVG/1.1/DTD/svg11.dtd" >
<svg xmlns="http://www.w3.org/2000/svg">
<metadata></metadata>
<defs>
<font id="xclusivecondensed" horiz-adv-x="788" >
<font-face units-per-em="2048" ascent="1536" descent="-512" />
<missing-glyph horiz-adv-x="321" />
<glyph horiz-adv-x="0" />
<glyph unicode="&#xd;" horiz-adv-x="0" />
<glyph horiz-adv-x="0" />
<glyph horiz-adv-x="0" />
<glyph unicode=" "  horiz-adv-x="321" />
<glyph unicode="&#x09;" horiz-adv-x="321" />
<glyph unicode="&#xa0;" horiz-adv-x="321" />
<glyph unicode="!" horiz-adv-x="417" d="M109 94q0 51 28.5 82t71.5 31q47 0 73.5 -31t26.5 -82q0 -49 -26.5 -77.5t-73.5 -28.5q-43 0 -71.5 28.5t-28.5 77.5zM123 1380h174l-23 -995h-131z" />
<glyph unicode="&#x22;" horiz-adv-x="632" d="M102 1397h146l-29 -477h-88zM387 1397h145l-26 -477h-90z" />
<glyph unicode="#" d="M45 408v106h148l38 313h-141v105h156l51 399h104l-51 -399h160l51 399h103l-52 -399h131v-105h-145l-39 -313h143v-102h-155l-53 -412h-107l53 412h-157l-52 -412h-106l53 408h-133zM297 514h158l39 313h-158z" />
<glyph unicode="$" d="M104 102l37 123q41 -27 95.5 -46t113.5 -19q92 0 140.5 59.5t48.5 147.5t-42 150.5t-135 115.5q-47 27 -93 59.5t-80.5 72.5t-56 90t-21.5 116q0 61 18 113.5t50 93.5t74 68.5t89 39.5v199h115v-187q63 0 115.5 -17t80.5 -38l-41 -121q-29 16 -72.5 34t-103.5 18 q-43 0 -74.5 -15.5t-54 -41t-34 -57.5t-11.5 -65q0 -45 11.5 -77.5t35 -60.5t59 -52.5t87.5 -54.5q123 -72 178 -160t55 -205q0 -145 -70.5 -231t-173.5 -109v-213h-112v201q-72 2 -131.5 23.5t-96.5 45.5z" />
<glyph unicode="%" horiz-adv-x="1320" d="M61 938q0 197 73 303.5t179 106.5q117 0 183.5 -110t66.5 -296q0 -104 -21.5 -181t-56 -127t-80 -74.5t-92.5 -24.5q-55 0 -101 28.5t-80 80.5t-52.5 127t-18.5 167zM182 942q0 -53 6.5 -107.5t20.5 -99.5t39.5 -73.5t64.5 -28.5t64.5 28.5t40 73.5t19.5 99.5t5 105.5 q0 49 -5 104.5t-19.5 100.5t-40 74.5t-64.5 29.5t-63.5 -28.5t-39.5 -73.5t-21.5 -99.5t-6.5 -105.5zM260 -12l698 1360h101l-699 -1360h-100zM758 387q0 94 19.5 170t53 128t80 80t99.5 28q117 0 183.5 -109t66.5 -295q0 -104 -21.5 -180t-56.5 -124t-80 -71.5t-92 -23.5 q-111 0 -181.5 103.5t-70.5 293.5zM879 389q0 -53 6 -107.5t21.5 -98.5t41 -72.5t62.5 -28.5q39 0 64.5 28.5t39.5 72.5t19.5 98.5t5.5 105.5q0 49 -5.5 103.5t-19.5 99.5t-39.5 74.5t-64.5 29.5t-64.5 -28.5t-40 -73.5t-20.5 -98.5t-6 -104.5z" />
<glyph unicode="&#x26;" horiz-adv-x="1005" d="M59 367q0 113 50.5 212t160.5 181v6q-45 72 -72.5 147.5t-27.5 161.5q0 63 19.5 120.5t55.5 102.5t88 72t120 27q45 0 89 -17.5t77.5 -53.5t54 -89t20.5 -125q0 -104 -52 -190t-183 -181v-6q18 -33 45.5 -78t62.5 -97t74 -107.5t80 -108.5q23 47 38 102.5t24.5 108.5 t14.5 101.5t7 82.5h139q-6 -61 -17.5 -126.5t-28.5 -131t-43 -128t-60 -113.5q18 -29 60 -85.5t116 -154.5h-176q-20 29 -40 54.5t-55 74.5q-55 -72 -133 -106.5t-164 -34.5t-150.5 32.5t-107.5 86t-64.5 121t-21.5 139.5zM211 383q0 -53 13.5 -102.5t41 -88t68.5 -61 t94 -22.5q63 0 114.5 31.5t90.5 88.5q-92 123 -164 229.5t-135 205.5q-47 -45 -85 -116t-38 -165zM315 1085q0 -72 18.5 -130t59.5 -121q80 59 122 125.5t42 146.5q0 31 -6 62.5t-20.5 56t-37 40t-55.5 15.5q-61 0 -92 -56.5t-31 -138.5z" />
<glyph unicode="'" horiz-adv-x="348" d="M102 1397h146l-29 -477h-88z" />
<glyph unicode="(" horiz-adv-x="518" d="M119 586q0 150 20.5 277.5t52 232t71.5 185.5t81 136h123q-88 -141 -150.5 -346t-62.5 -487q0 -276 62.5 -480t150.5 -346h-123q-41 57 -82 137t-72.5 183.5t-51 229.5t-19.5 278z" />
<glyph unicode=")" horiz-adv-x="518" d="M51 -242q88 139 150.5 345t62.5 485t-62.5 484.5t-150.5 344.5h123q39 -59 80 -138t72.5 -181.5t52 -229.5t20.5 -280q0 -152 -20.5 -279t-53 -229.5t-72.5 -182t-79 -139.5h-123z" />
<glyph unicode="*" horiz-adv-x="763" d="M49 997v123l268 -33l2 5l-169 237l106 62l123 -263h4l117 269l110 -62l-174 -245v-5l277 35v-123l-277 31v-4l178 -236l-114 -65l-121 270l-4 -2l-123 -274l-105 67l175 246v2z" />
<glyph unicode="+" horiz-adv-x="1220" d="M82 492v110h471v488h115v-488h471v-110h-471v-492h-115v492h-471z" />
<glyph unicode="," horiz-adv-x="397" d="M35 -254q16 45 33.5 104.5t34 123t29.5 128t22 117.5l178 21q-16 -61 -40 -131t-50.5 -136.5t-52 -122t-46.5 -90.5z" />
<glyph unicode="-" horiz-adv-x="571" d="M61 473v123h449v-123h-449z" />
<glyph unicode="." horiz-adv-x="397" d="M100 102q0 53 31 86t74 33q47 0 75.5 -32.5t28.5 -86.5q0 -53 -27.5 -83.5t-76.5 -30.5q-45 0 -75 30.5t-30 83.5z" />
<glyph unicode="/" horiz-adv-x="575" d="M16 -78l441 1475h118l-442 -1475h-117z" />
<glyph unicode="0" d="M55 664q0 340 92.5 512t258.5 172q80 0 141 -47.5t103 -134.5t62.5 -213t20.5 -285q0 -182 -26.5 -311.5t-73.5 -211.5t-110.5 -119.5t-135.5 -37.5q-156 0 -244 173t-88 503zM213 666q0 -121 10 -221.5t34 -173t58.5 -112.5t83.5 -40q45 0 79 41t55.5 112.5t31.5 172 t10 221.5q0 117 -10 217t-31.5 172.5t-55.5 114.5t-81 42t-81.5 -41t-57 -112.5t-34 -173t-11.5 -219.5z" />
<glyph unicode="1" d="M129 1167l281 164h131v-1331h-156v1171h-4l-221 -127z" />
<glyph unicode="2" d="M66 0v102l112 154q59 82 120.5 169t112 178t82 184.5t31.5 187.5q0 111 -48 174t-142 63q-72 0 -120 -28.5t-73 -44.5l-39 118q35 29 101.5 60t158.5 31q82 0 142.5 -29t99.5 -78t57.5 -115.5t18.5 -142.5q0 -94 -28.5 -186t-75 -182.5t-104.5 -177.5t-120 -171l-90 -123 v-4h445v-139h-641z" />
<glyph unicode="3" d="M57 45l35 125q31 -18 82 -36.5t111 -18.5q104 0 166.5 70.5t62.5 195.5q0 131 -72.5 202.5t-195.5 71.5h-37v119h31q35 0 76.5 14.5t77.5 43t60.5 73.5t24.5 107q0 100 -49 152.5t-127 52.5q-49 0 -91 -20.5t-75 -43.5l-35 119q37 29 100.5 52.5t139.5 23.5q70 0 125 -24 t93 -65.5t57.5 -98t19.5 -120.5q0 -100 -50 -182t-149 -129v-4q45 -12 87 -39t75 -70t52.5 -102t19.5 -137q0 -82 -25.5 -152.5t-75 -123t-120 -83t-160.5 -30.5q-66 0 -129.5 14t-104.5 43z" />
<glyph unicode="4" d="M37 367v106l432 858h154v-835h145v-129h-145v-367h-144v367h-442zM186 496h293v376q0 70 4 133.5t9 129.5h-9q-35 -80 -59.5 -135.5t-52.5 -116.5l-185 -383v-4z" />
<glyph unicode="5" d="M53 41l35 127q31 -18 81 -35.5t105 -17.5q51 0 96.5 19.5t80 58t55 96t20.5 133.5q0 80 -22.5 136t-63.5 92t-96 53.5t-119 17.5q-37 0 -61.5 -1t-42.5 -5l84 616h477v-139h-358l-56 -354q12 4 23.5 4h25.5q53 0 127 -23.5t127 -77.5q53 -53 82 -125.5t29 -177.5 q0 -98 -29.5 -181t-83 -143.5t-128 -93t-162.5 -32.5q-59 0 -122 13t-104 40z" />
<glyph unicode="6" d="M59 524q0 197 47.5 345.5t124.5 254.5q63 86 149.5 139.5t172.5 71.5q33 6 58.5 8.5t41.5 4.5v-134q-20 -2 -43.5 -5t-50.5 -9q-84 -18 -142.5 -67.5t-99.5 -115t-64.5 -143t-35.5 -153.5h6q39 57 94.5 92t131.5 35q129 0 207.5 -108.5t78.5 -301.5q0 -96 -21.5 -178 t-62.5 -142.5t-102.5 -95t-140.5 -34.5q-86 0 -152 41t-110 112.5t-65.5 170t-21.5 212.5zM215 504q2 -205 57.5 -301.5t135.5 -96.5q33 0 64.5 17.5t54 55.5t37 99.5t14.5 147.5q0 154 -48.5 227.5t-130.5 73.5q-49 0 -96 -35t-76 -108q-4 -10 -8 -31t-4 -49z" />
<glyph unicode="7" d="M76 1192v139h641v-94l-430 -1237h-154l422 1188v4h-479z" />
<glyph unicode="8" d="M57 326q0 70 19.5 127t50.5 104t70 84t79 66l-2 4q-86 57 -130 138t-44 167q0 76 26 137t69 104t99 67t118 24q72 0 125 -28t89 -72t53 -100t17 -114q0 -88 -43 -169t-135 -144v-6q92 -61 152.5 -150.5t60.5 -212.5q0 -78 -24.5 -144.5t-69.5 -115.5t-108.5 -76.5 t-139.5 -27.5q-84 0 -145.5 29.5t-103.5 76.5t-62.5 108.5t-20.5 123.5zM213 352q0 -113 48 -182.5t134 -69.5q74 0 127 58.5t53 183.5q0 57 -15 103.5t-41.5 83t-60.5 66.5t-73 54q-80 -49 -126 -129t-46 -168zM252 1026q0 -51 14.5 -90t37 -68.5t52 -53t60.5 -44.5 q59 43 96 106.5t37 139.5q0 98 -39 156.5t-111 58.5q-66 0 -106.5 -56.5t-40.5 -148.5z" />
<glyph unicode="9" d="M61 897q0 92 24 174t68 143.5t105 97.5t139 36q86 0 148.5 -42t103.5 -115t61.5 -170t20.5 -208q0 -199 -45 -352.5t-131 -263.5q-59 -80 -139 -131.5t-168 -67.5q-33 -6 -59.5 -8t-51.5 -2v131q27 0 49.5 3t49.5 9q113 29 182 105q59 59 99 151t56 227h-6 q-37 -47 -90 -79.5t-125 -32.5q-61 0 -114.5 27.5t-92.5 78.5t-61.5 125t-22.5 164zM217 911q0 -147 50 -218.5t130 -71.5q49 0 95.5 31.5t68.5 86.5q8 16 10 34t2 52q0 209 -53 304.5t-131 95.5q-31 0 -61.5 -17.5t-55 -54.5t-40 -96.5t-15.5 -145.5z" />
<glyph unicode=":" horiz-adv-x="397" d="M102 98q0 51 30 84t73 33q47 0 74.5 -31.5t27.5 -85.5q0 -51 -26.5 -80.5t-75.5 -29.5q-45 0 -74 29.5t-29 80.5zM102 850q0 51 30 84t73 33q47 0 74.5 -32t27.5 -85q0 -51 -26.5 -83t-75.5 -32q-45 0 -74 32t-29 83z" />
<glyph unicode=";" horiz-adv-x="397" d="M37 -254q16 45 33.5 104.5t34 123t29.5 128t22 117.5l174 21q-16 -61 -40 -131t-50.5 -136.5t-52 -122t-46.5 -90.5zM125 850q0 51 29.5 84t72.5 33q47 0 75 -32t28 -85q0 -51 -27 -83t-76 -32q-45 0 -73.5 32t-28.5 83z" />
<glyph unicode="&#x3c;" horiz-adv-x="1220" d="M135 496v98l950 496v-138l-794 -405v-4l794 -408v-135z" />
<glyph unicode="=" horiz-adv-x="1220" d="M82 301v113h1057v-113h-1057zM82 688v113h1057v-113h-1057z" />
<glyph unicode="&#x3e;" horiz-adv-x="1220" d="M135 0v135l819 408v4l-819 407v136l950 -486v-119z" />
<glyph unicode="?" horiz-adv-x="632" d="M90 1343q25 16 81 35t122 19q76 0 130 -23.5t89 -63.5t50.5 -90.5t15.5 -105.5t-14.5 -105.5t-38 -96.5t-50 -88t-51.5 -85q-47 -80 -62.5 -155.5t-9.5 -177.5l2 -35h-139l-4 30q-12 92 5 188.5t81 201.5q25 43 47.5 79.5t37.5 72.5t24.5 73t9.5 78q0 88 -45 127t-113 39 q-39 0 -75 -10.5t-60 -28.5zM174 96q0 53 29.5 85t72.5 32q47 0 75 -31.5t28 -85.5q0 -49 -27 -78.5t-76 -29.5q-45 0 -73.5 29.5t-28.5 78.5z" />
<glyph unicode="@" horiz-adv-x="1208" d="M72 383q0 168 49 319.5t136 264t205 179t257 66.5q104 0 184 -36.5t134.5 -101t82 -154t27.5 -195.5q0 -291 -89 -441.5t-227 -150.5q-57 0 -90.5 39t-27.5 125h-6q-53 -98 -114 -131t-110 -33q-72 0 -119 56.5t-47 166.5q0 86 28 178.5t83 168t137 125t191 49.5 q39 0 77.5 -8.5t65.5 -20.5l-82 -414q-23 -111 -10.5 -163t53.5 -52q37 0 72 34t62.5 95.5t44 147.5t16.5 190q0 211 -85 329t-265 118q-109 0 -206.5 -54.5t-172 -154t-118.5 -237.5t-44 -306q0 -252 111.5 -373t310.5 -121q76 0 135 17.5t117 48.5l24 -72 q-68 -41 -142.5 -59.5t-160.5 -18.5q-100 0 -189 35t-154.5 107.5t-104.5 181.5t-39 256zM436 360q0 -70 23.5 -99.5t58.5 -29.5q33 0 63.5 21.5t56.5 56.5t45 79t30 89l59 299q-20 10 -57 10q-59 0 -109.5 -37.5t-88.5 -99t-59.5 -137.5t-21.5 -152z" />
<glyph unicode="A" horiz-adv-x="890" d="M45 0l315 1380h175l307 -1380h-156l-92 414h-305l-92 -414h-152zM311 541h262l-71 350q-16 74 -29.5 155.5t-26.5 159.5h-8q-12 -78 -26.5 -161.5t-28.5 -153.5z" />
<glyph unicode="B" horiz-adv-x="851" d="M123 6v1354q49 12 107.5 19t123.5 7q94 0 172 -21.5t133 -74.5q90 -84 91 -235q0 -106 -54.5 -186.5t-158.5 -120.5v-5q123 -33 189.5 -125t66.5 -227q0 -170 -99 -274q-59 -66 -152 -93.5t-212 -27.5q-78 0 -126 3t-81 7zM281 125q25 -8 79 -8q123 0 197 69.5t74 204.5 q0 72 -23.5 125t-61.5 88t-89 52.5t-107 17.5h-69v-549zM281 795h71q49 0 92 17t76 50t52.5 77t19.5 99q0 94 -51.5 160t-175.5 66q-49 0 -84 -11v-458z" />
<glyph unicode="C" horiz-adv-x="763" d="M66 674q0 205 46 342t116.5 221t156.5 120t168 36q63 0 106 -10.5t66 -24.5l-35 -133q-25 10 -55.5 19t-83.5 9q-55 0 -112.5 -28.5t-103.5 -95t-75 -175t-29 -266.5t27 -265.5t72 -173t103.5 -94t121.5 -28.5q45 0 83 9t62 22l25 -133q-63 -33 -197 -33q-102 0 -187 41 t-146.5 125t-95 212t-33.5 304z" />
<glyph unicode="D" horiz-adv-x="911" d="M123 6v1354q83 26 204 26h9q111 0 188.5 -26.5t134.5 -77.5q80 -70 133.5 -206t53.5 -353q0 -119 -14.5 -211t-37 -162.5t-52 -121t-62.5 -87.5q-70 -76 -164 -110.5t-217 -34.5q-47 0 -94 3t-82 7zM281 129q16 -4 32.5 -4h26.5q66 0 127 26.5t109.5 94t77 182.5 t28.5 291q0 264 -81 401t-247 137q-18 0 -37.5 -2t-35.5 -6v-1120z" />
<glyph unicode="E" horiz-adv-x="724" d="M123 0v1380h526v-137h-368v-455h346v-133h-346v-518h393v-137h-551z" />
<glyph unicode="F" horiz-adv-x="706" d="M123 0v1380h526v-137h-368v-483h344v-133h-344v-627h-158z" />
<glyph unicode="G" horiz-adv-x="892" d="M66 672q0 201 47 339t121.5 223t167 122t184.5 37q66 0 115 -11.5t81 -27.5l-34 -135q-29 14 -67 23t-93 9q-66 0 -129.5 -27.5t-114.5 -94t-83 -175t-32 -268.5t28 -267.5t74 -174t105.5 -94t120.5 -27.5q41 0 63.5 6t32.5 10v451h-178v131h328v-686 q-45 -18 -112.5 -30.5t-133.5 -12.5q-92 0 -173 26.5t-153 104.5q-76 80 -120.5 218t-44.5 331z" />
<glyph unicode="H" horiz-adv-x="948" d="M123 0v1380h158v-592h387v592h157v-1380h-157v645h-387v-645h-158z" />
<glyph unicode="I" horiz-adv-x="407" d="M123 0v1380h158v-1380h-158z" />
<glyph unicode="J" horiz-adv-x="542" d="M6 0l14 131q31 -8 76 -8q43 0 76 10t55.5 40t34.5 81t12 133v993h158v-991q0 -117 -22.5 -193.5t-64.5 -122.5t-102.5 -65.5t-133.5 -19.5q-61 0 -103 12z" />
<glyph unicode="K" horiz-adv-x="827" d="M123 0v1380h158v-655h4q23 43 43 84t43 82l258 489h174l-338 -589l346 -791h-170l-283 666l-77 -134v-532h-158z" />
<glyph unicode="L" horiz-adv-x="704" d="M123 0v1380h158v-1247h389v-133h-547z" />
<glyph unicode="M" horiz-adv-x="1226" d="M90 0l82 1380h170l162 -630q35 -137 61.5 -247t48.5 -229h7q10 59 20 114.5t22.5 112t27 117t32.5 132.5l156 630h176l80 -1380h-148l-29 594q-6 136 -12 280q-4 86 -4 163q0 51 2 98h-8q-47 -233 -111 -480l-170 -647h-100l-162 621q-35 135 -63.5 259t-48.5 247h-7 q0 -123 -5 -263.5t-11 -287.5l-27 -584h-141z" />
<glyph unicode="N" horiz-adv-x="952" d="M123 0v1380h149l254 -647q43 -111 92.5 -239.5t83.5 -241.5h5q-4 82 -7.5 157.5t-6.5 151.5t-4 156t-1 170v493h141v-1380h-149l-262 664q-41 104 -84 222t-80 247h-4q4 -70 7 -139.5t5 -147.5t3 -168t1 -201v-477h-143z" />
<glyph unicode="O" horiz-adv-x="913" d="M66 692q0 172 29.5 303t82.5 220.5t128 135.5t165 46q180 0 278.5 -181.5t98.5 -515.5q0 -195 -32 -329.5t-85 -219.5t-127 -124t-155 -39q-172 0 -277.5 178t-105.5 526zM229 690q0 -109 11.5 -210t38 -181t70.5 -128t110 -48q68 0 110.5 51t68.5 133t36 183.5t10 203.5 q0 96 -10 196.5t-36 181.5t-69.5 133t-111.5 52q-66 0 -109 -49t-69.5 -129t-38 -182t-11.5 -207z" />
<glyph unicode="P" horiz-adv-x="817" d="M123 0v1360q47 12 104.5 19t124.5 7q98 0 175 -24.5t130 -77.5q102 -98 103 -285q0 -98 -21.5 -163.5t-62.5 -118.5q-59 -78 -146.5 -116t-179.5 -38h-36.5t-32.5 2v-565h-158zM281 698q27 -6 61 -6q117 0 188.5 75t71.5 222q0 51 -12 100.5t-40 86t-73 59t-108 22.5 q-51 0 -88 -10v-549z" />
<glyph unicode="Q" horiz-adv-x="913" d="M66 692q0 172 29.5 304t82.5 221.5t128 134.5t167 45q180 0 277.5 -182.5t97.5 -514.5q0 -285 -62.5 -442.5t-173.5 -210.5v-8q70 -29 138.5 -50.5t128.5 -43.5l-58 -127q-39 16 -83 35.5t-88 40t-82 39t-64 34.5q-20 12 -33.5 16.5t-17.5 4.5q-86 0 -157 42t-122 129 t-79.5 220t-28.5 313zM229 692q0 -102 10.5 -203.5t37 -183.5t71.5 -132t113 -50q66 0 108.5 50t68.5 132t36 184.5t10 204.5q0 98 -10 198.5t-36 181.5t-69 132t-108 51q-68 0 -112 -51t-70.5 -132t-38 -182t-11.5 -200z" />
<glyph unicode="R" horiz-adv-x="837" d="M123 0v1360q51 14 109.5 20t117.5 6q104 0 181 -22.5t131 -75.5q53 -53 74.5 -120.5t21.5 -149.5q0 -135 -58.5 -221t-162.5 -133v-5q78 -23 120.5 -98.5t65.5 -210.5q23 -143 43 -230t35 -120h-160q-16 31 -34.5 122t-39.5 220q-23 141 -73 200.5t-152 59.5h-61v-602 h-158zM281 723h65q117 0 184.5 75.5t67.5 200.5q0 123 -53 190.5t-183 70.5q-51 0 -81 -9v-528z" />
<glyph unicode="S" horiz-adv-x="739" d="M57 47l35 135q35 -23 90.5 -39t108.5 -16q111 0 170 64.5t59 168.5q0 96 -49 162t-133 125q-41 29 -87 67t-84 86t-63.5 105.5t-25.5 124.5q0 78 26.5 144.5t73.5 114.5t114.5 76t149.5 28q66 0 118 -16.5t77 -35.5l-39 -135q-27 18 -69 32.5t-95 14.5q-51 0 -88 -17 t-61.5 -45t-36.5 -63.5t-12 -70.5q0 -51 13 -89t38.5 -70t63.5 -61.5t87 -64.5q125 -88 182.5 -184t57.5 -213q0 -90 -30 -161t-82 -120t-122.5 -75.5t-152.5 -26.5q-72 0 -138.5 16.5t-95.5 38.5z" />
<glyph unicode="T" horiz-adv-x="724" d="M33 1239v141h661v-141h-252v-1239h-157v1239h-252z" />
<glyph unicode="U" horiz-adv-x="935" d="M121 461v919h158v-925q0 -92 14 -155.5t39.5 -102.5t59.5 -56.5t75 -17.5q43 0 79 17.5t60.5 57.5t37.5 103.5t13 153.5v925h158v-901q0 -135 -26.5 -228t-72.5 -151.5t-111.5 -85t-141.5 -26.5q-78 0 -141.5 25.5t-107.5 83t-68.5 146.5t-24.5 218z" />
<glyph unicode="V" horiz-adv-x="862" d="M33 1380h168l135 -647q25 -117 52.5 -256t45.5 -274h6q16 135 42 273t50 261l132 643h167l-321 -1380h-162z" />
<glyph unicode="W" horiz-adv-x="1339" d="M41 1380h164l117 -665q23 -131 39 -250t28 -248h8q12 131 34 248t48 252l127 663h135l127 -649q25 -123 45.5 -244.5t34.5 -269.5h6q16 150 35 268.5t39 237.5l115 657h153l-268 -1380h-154l-133 672q-23 111 -40 223.5t-29 228.5h-4q-16 -117 -35 -231.5t-41 -226.5 l-137 -666h-148z" />
<glyph unicode="X" horiz-adv-x="802" d="M29 0l284 705l-274 675h164l123 -319l82 -219h4q23 72 39 123t34 102l113 313h162l-271 -671l285 -709h-166l-125 332q-23 57 -42 113.5t-42 127.5h-6q-23 -70 -43 -130t-41 -115l-119 -328h-161z" />
<glyph unicode="Y" horiz-adv-x="806" d="M20 1380h166l123 -346q27 -72 53.5 -151.5t49.5 -159.5h4q23 80 47 159t53 158l117 340h166l-318 -790v-590h-157v584z" />
<glyph unicode="Z" horiz-adv-x="733" d="M41 0v94l473 1145v6h-434v135h610v-106l-465 -1133v-6h463v-135h-647z" />
<glyph unicode="[" horiz-adv-x="518" d="M152 -225v1622h305v-109h-178v-1405h178v-108h-305z" />
<glyph unicode="\" horiz-adv-x="538" d="M2 1397h119l401 -1475h-119z" />
<glyph unicode="]" horiz-adv-x="518" d="M63 -117h177v1413h-177v109h304v-1630h-304v108z" />
<glyph unicode="^" horiz-adv-x="1220" d="M131 387l422 944h115l422 -944h-134l-344 795h-6l-344 -795h-131z" />
<glyph unicode="_" horiz-adv-x="1024" d="M0 -150h1024v-102h-1024v102z" />
<glyph unicode="`" horiz-adv-x="614" d="M80 1397h162l157 -277h-104z" />
<glyph unicode="a" horiz-adv-x="745" d="M53 266q0 92 35 160t93.5 113t134 66.5t159.5 21.5v30q0 100 -31.5 163t-126.5 63q-47 0 -88 -14.5t-75 -37.5l-35 111q31 23 94 44.5t137 21.5q150 0 217.5 -93.5t67.5 -261.5v-428q0 -57 1 -117.5t9 -107.5h-143l-10 104h-7q-65 -116 -194 -116h-2q-100 0 -168 74.5 t-68 203.5zM207 283q0 -49 11 -82t28.5 -54.5t39 -31t42.5 -9.5q53 0 93 38t54 112q4 14 4 28.5v26.5v201q-31 0 -77 -5t-90 -28.5t-74.5 -70t-30.5 -125.5z" />
<glyph unicode="b" horiz-adv-x="817" d="M100 0q0 20 1 51t3 63.5t3.5 65.5t1.5 58v1179h157v-543h4q39 74 92.5 104t116.5 30q117 0 194 -128t77 -374q0 -135 -26 -232.5t-68 -161t-96 -94t-111 -30.5q-78 0 -123 39t-74 102h-6l-10 -129h-136zM266 350q0 -16 1 -32.5t5 -28.5q14 -55 33 -89t39.5 -53.5 t39.5 -25.5t36 -6q47 0 79.5 29.5t53 82t30 122t9.5 149.5q0 74 -9.5 142.5t-30 119.5t-54 81.5t-80.5 30.5q-29 0 -53.5 -15t-44 -40.5t-33 -57.5t-17.5 -63q-4 -16 -4 -34.5v-34.5v-277z" />
<glyph unicode="c" horiz-adv-x="618" d="M68 489q0 106 26.5 200.5t76.5 164.5t123 111t165 41q41 0 78.5 -9.5t60.5 -21.5l-31 -129q-16 8 -44.5 17t-67.5 9q-59 0 -102.5 -32.5t-72 -86t-42 -122t-13.5 -142.5q0 -174 61.5 -272t172.5 -98q33 0 59.5 7t54.5 19l21 -120q-51 -33 -164 -33q-166 0 -264 125 t-98 372z" />
<glyph unicode="d" horiz-adv-x="817" d="M68 492q0 131 25.5 228t66.5 161.5t95 95.5t112 31q53 0 102 -28t78 -91h4v528h156v-1179q0 -25 1 -58t3 -65.5t3 -63.5t1 -51h-135l-11 125h-6q-25 -53 -77 -95t-130 -42q-129 0 -208.5 128t-79.5 376zM225 492q0 -78 10.5 -147t31 -120t52 -80.5t74.5 -29.5q18 0 40 6 t42.5 24.5t38.5 52t31 87.5q6 27 6 65v264v33t-2 33q-8 78 -49 135t-99 57q-49 0 -82.5 -31.5t-54 -83.5t-30 -122t-9.5 -143z" />
<glyph unicode="e" horiz-adv-x="743" d="M68 485q0 119 24.5 216.5t68.5 165t105.5 104.5t134.5 37q76 0 130.5 -37t88 -98.5t49 -140.5t15.5 -163v-49t-2 -39h-461q0 -115 20.5 -186.5t54.5 -111.5t76 -55t85 -15q51 0 93 11t71 28l24 -117q-41 -23 -99.5 -33t-117.5 -10q-178 0 -269 133t-91 360zM223 598h309 q0 74 -12 128t-32.5 90t-47 52.5t-55.5 16.5q-39 0 -67.5 -25.5t-49 -66.5t-32 -92.5t-13.5 -102.5z" />
<glyph unicode="f" horiz-adv-x="466" d="M18 870v121h125v60q0 80 17.5 158.5t70.5 140.5q43 47 97.5 65.5t101.5 18.5q41 0 70.5 -7.5t52.5 -17.5l-27 -123q-14 6 -34.5 11.5t-51.5 5.5q-43 0 -69.5 -20.5t-42 -55.5t-21.5 -80t-6 -94v-62h180v-121h-180v-870h-158v870h-125z" />
<glyph unicode="g" horiz-adv-x="817" d="M68 492q0 137 28.5 234t72.5 159.5t99.5 92.5t110.5 30q39 0 68.5 -12.5t51 -31t37 -41t27.5 -44.5h4l8 112h142q-2 -53 -5 -123.5t-3 -185.5v-555q0 -96 -6.5 -164.5t-18.5 -118t-30.5 -83t-43.5 -60.5q-45 -51 -111.5 -79t-152.5 -28q-63 0 -120.5 13.5t-96.5 36.5 l37 123q29 -16 77 -29.5t107 -13.5q94 0 148.5 66.5t54.5 232.5v100h-4q-27 -59 -77 -90t-114 -31q-66 0 -120 36t-91.5 100.5t-58 154.5t-20.5 199zM225 500q0 -190 52.5 -279.5t123.5 -89.5q18 0 38 5t38.5 20.5t35.5 43t30 72.5q6 23 8 45.5t2 44.5v287q0 41 -8 72 q-6 25 -17.5 52.5t-28 49t-41 35.5t-57.5 14q-43 0 -75.5 -27.5t-55 -76.5t-34 -117.5t-11.5 -150.5z" />
<glyph unicode="h" horiz-adv-x="829" d="M111 0v1417h157v-532h4q33 49 82 86q29 16 59.5 26.5t73.5 10.5q47 0 89 -19.5t74 -61.5t50.5 -108.5t18.5 -161.5v-657h-158v639q0 45 -6 88t-20.5 76t-41 52t-65.5 19q-55 0 -95 -39.5t-59 -117.5q-6 -35 -6 -76v-641h-157z" />
<glyph unicode="i" horiz-adv-x="376" d="M94 1247q0 47 26.5 75t65.5 28q43 0 69 -28t26 -75v-6q0 -43 -25 -69q-27 -28 -72 -27q-39 0 -64.5 27.5t-25.5 74.5zM111 0v991h157v-991h-157z" />
<glyph unicode="j" horiz-adv-x="385" d="M-53 -281q35 10 69.5 25.5t59.5 52.5q12 18 21 44t15.5 62t8.5 86t2 120v882h158v-928q0 -152 -25 -236.5t-76 -137.5q-47 -47 -108.5 -69.5t-104.5 -25.5zM109 1247q0 47 26.5 75t67.5 28t66.5 -28t25.5 -75t-25.5 -74.5t-70.5 -27.5q-39 0 -64.5 27.5t-25.5 74.5z" />
<glyph unicode="k" horiz-adv-x="724" d="M109 0v1417h157v-887h4q14 29 26.5 57.5t27.5 53.5l196 350h170l-262 -418l285 -573h-176l-215 467l-56 -92v-375h-157z" />
<glyph unicode="l" horiz-adv-x="391" d="M111 0v1417h157v-1417h-157z" />
<glyph unicode="m" horiz-adv-x="1269" d="M102 991h138l8 -123h4q33 59 89 99.5t134 40.5q70 0 124 -36t83 -116h4q39 72 98 113q57 39 138 39q100 0 168.5 -81t68.5 -270v-657h-155v621q0 49 -5.5 94t-19.5 80.5t-42 57t-73 21.5q-49 0 -89 -38.5t-56 -108.5q-4 -20 -5 -42.5t-1 -47.5v-637h-156v649q0 41 -5 82 t-19.5 73t-42 51t-70.5 19q-47 0 -90 -40.5t-58 -118.5q-6 -41 -6 -86v-629h-155v735q0 43 -1 78t-3.5 64.5t-3.5 56.5t-1 57z" />
<glyph unicode="n" horiz-adv-x="829" d="M102 991h138l8 -119h4q33 59 91 97.5t136 38.5q102 0 171 -81t69 -261v-666h-158v639q0 43 -5 86t-20.5 76t-42 53t-69.5 20q-49 0 -91 -40.5t-59 -120.5q-6 -37 -6 -88v-625h-157v735q0 43 -1 78t-3.5 64.5t-3.5 56.5t-1 57z" />
<glyph unicode="o" horiz-adv-x="784" d="M68 494q0 135 27.5 232t73.5 159.5t105 92.5t125 30t124.5 -32t101.5 -95.5t68.5 -159.5t25.5 -225q0 -143 -31 -240.5t-78 -157t-105.5 -85t-115.5 -25.5q-68 0 -126 29.5t-101 92t-68.5 157.5t-25.5 227zM225 496q0 -61 7.5 -130t25.5 -125.5t52 -94t87 -37.5 q51 0 83 38.5t49.5 97t23.5 126t6 125.5q0 57 -6 123.5t-24.5 125t-51.5 97.5t-84 39q-53 0 -86 -39t-51 -97.5t-24.5 -125t-6.5 -123.5z" />
<glyph unicode="p" horiz-adv-x="817" d="M100 991h142l8 -127h4q41 80 95 112t114 32q129 0 208 -131.5t79 -378.5q0 -137 -27 -234.5t-70 -159t-98 -89t-113 -27.5q-70 0 -110.5 34.5t-61.5 75.5h-4v-487h-157v1071q0 115 -3.5 185.5t-5.5 123.5zM266 365q0 -23 1 -44.5t5 -37.5q12 -53 29.5 -86t38 -51.5 t41 -24.5t37.5 -6q49 0 81.5 31.5t53 84t29 121t8.5 144.5t-9.5 144.5t-31 120.5t-54 81.5t-79.5 29.5q-27 0 -51.5 -15t-44 -40.5t-33 -58.5t-17.5 -66q-4 -18 -4 -36.5v-39.5v-251z" />
<glyph unicode="q" horiz-adv-x="817" d="M68 483q0 131 25.5 229.5t68.5 164t99 98.5t118 33q47 0 98 -27t86 -104l4 -3l8 117h142q-4 -53 -6 -123.5t-2 -185.5v-1071h-158v491h-6q-25 -51 -74 -82.5t-117 -31.5q-59 0 -111.5 31.5t-91 94t-61 154.5t-22.5 215zM225 492q0 -78 10.5 -147t32 -120t54 -80.5 t77.5 -29.5q18 0 39 6t39.5 24.5t35.5 50t30 85.5q6 18 7 40.5t1 43.5v256v33.5t-4 31.5q-10 78 -50 132t-94 54q-49 0 -82.5 -29.5t-55 -81.5t-31 -122t-9.5 -147z" />
<glyph unicode="r" horiz-adv-x="507" d="M100 991h142l8 -155h4q25 72 82 122t127 50q10 0 17 -1t16 -1v-162q-6 2 -33 2q-76 0 -127 -60.5t-64 -146.5q-6 -41 -6 -90v-549h-157v735q0 63 -3.5 132t-5.5 124z" />
<glyph unicode="s" horiz-adv-x="591" d="M45 45l39 119q27 -16 70 -33.5t90 -17.5q68 0 106.5 38.5t38.5 104.5q0 57 -25.5 101t-101.5 94q-98 66 -148.5 131t-50.5 151q0 59 20.5 109.5t57.5 87.5t86 57.5t109 20.5q59 0 103 -16.5t75 -35.5l-43 -118q-29 18 -60.5 30.5t-70.5 12.5q-66 0 -97.5 -39t-31.5 -86 q0 -51 23.5 -87t99.5 -85q43 -29 80 -59.5t64.5 -67.5t44 -80t16.5 -94q0 -74 -23.5 -129.5t-64.5 -91t-94.5 -53t-114.5 -17.5q-55 0 -109.5 13t-87.5 40z" />
<glyph unicode="t" horiz-adv-x="522" d="M25 870v121h120v217l158 45v-262h191v-121h-191v-587q0 -96 31 -130t74 -34q35 0 63 6l6 -121q-23 -4 -50.5 -8t-66.5 -4q-47 0 -87 11t-68 44q-29 35 -44.5 90.5t-15.5 159.5v573h-120z" />
<glyph unicode="u" horiz-adv-x="815" d="M106 365v626h158v-604q0 -59 5 -108.5t20.5 -85t41 -56t66.5 -20.5q35 0 60.5 14t42 34.5t26 43t13.5 39.5q4 20 6 42.5t2 47.5v653h158v-721q0 -86 3 -150.5t5 -119.5h-138l-10 104h-4q-25 -37 -78 -76.5t-135 -39.5q-131 0 -186.5 95t-55.5 282z" />
<glyph unicode="v" horiz-adv-x="710" d="M27 991h163l125 -557q10 -51 21.5 -113.5t21.5 -127.5h7q8 61 17 121.5t24 119.5l122 557h156l-258 -991h-141z" />
<glyph unicode="w" horiz-adv-x="1159" d="M27 991h163l97 -485q16 -80 29.5 -159t23.5 -157h8q10 78 27.5 159t34.5 153l114 489h121l109 -475q20 -86 35.5 -163t27.5 -163h8q10 78 23.5 156t30.5 164l94 481h157l-249 -991h-129l-115 481q-16 72 -29.5 141.5t-25.5 155.5h-4q-12 -88 -25.5 -159.5t-32.5 -143.5 l-119 -475h-133z" />
<glyph unicode="x" horiz-adv-x="696" d="M23 0l235 498l-229 493h170l92 -213q18 -43 33.5 -86t31.5 -88h4q16 47 33 90t33 84l90 213h162l-236 -489l234 -502h-172l-94 223q-16 41 -32 81t-34 89h-4l-66 -170l-92 -223h-159z" />
<glyph unicode="y" horiz-adv-x="708" d="M27 991h166l131 -569q14 -59 22 -108.5t19 -96.5h4q8 41 20 95.5t23 107.5l116 571h156l-162 -637q-47 -188 -102 -355t-144 -280q-53 -66 -102 -102.5t-76 -48.5l-57 135q74 41 139 125q31 39 54.5 85t35.5 81q10 27 11 45v18.5t-5 18.5z" />
<glyph unicode="z" horiz-adv-x="641" d="M33 0v96l313 613q20 39 42 75.5t38 71.5v4h-354v131h528v-104l-309 -604q-20 -39 -42 -76t-38 -72v-4h389v-131h-567z" />
<glyph unicode="{" horiz-adv-x="518" d="M59 537v102q43 0 70 13.5t42 34t21.5 46t6.5 49.5q0 45 -4.5 88t-8.5 86q-4 47 -8 90.5t-4 90.5q0 139 74 200.5t184 61.5h25v-107h-31q-66 0 -93.5 -42t-27.5 -111q0 -41 4 -80t8 -76q4 -41 7.5 -78t3.5 -74q0 -59 -9.5 -101t-28 -69.5t-45 -44t-59.5 -24.5v-4 q33 -10 59.5 -26.5t45 -44.5t28 -69.5t9.5 -103.5q0 -39 -3 -77t-8 -77q-4 -39 -8 -77.5t-4 -79.5q0 -66 26.5 -109t96.5 -43h29v-106h-27q-51 0 -97 13t-82 44t-56.5 80t-20.5 121q0 47 4 92l8 90t8.5 89t4.5 87q0 25 -6.5 50.5t-21.5 47t-42 35t-70 13.5z" />
<glyph unicode="|" horiz-adv-x="411" d="M141 -508v2044h129v-2044h-129z" />
<glyph unicode="}" horiz-adv-x="518" d="M61 -119h29q70 8 96.5 47t26.5 105q0 41 -3 80t-7 77q-4 39 -8.5 77t-4.5 77q0 61 9.5 103t28 70t44 44.5t60.5 26.5v4q-35 8 -60.5 24.5t-44 44t-28 69.5t-9.5 101q0 37 4.5 74t8.5 78q4 37 7 76t3 80q0 70 -27.5 107.5t-93.5 45.5h-31v107h25q111 0 184.5 -61.5 t73.5 -200.5q0 -47 -4 -90t-8 -91q-4 -43 -8.5 -86t-4.5 -88q0 -25 6.5 -50t21.5 -45.5t42 -34t70 -13.5v-102q-43 0 -70 -13.5t-42 -35t-21.5 -47t-6.5 -50.5q0 -43 4.5 -87t8.5 -89l8 -90t4 -92q0 -72 -21.5 -121t-56.5 -80t-81 -44t-97 -13h-27v106z" />
<glyph unicode="~" horiz-adv-x="1220" d="M150 453q-4 135 58 204.5t167 69.5q55 0 120.5 -22.5t143.5 -63.5t132 -61.5t95 -20.5q53 0 76 46t21 114h110q8 -141 -49 -209t-162 -68q-57 0 -115.5 17.5t-148.5 64.5q-72 39 -130 63.5t-106 24.5q-49 0 -76.5 -38.5t-25.5 -120.5h-110z" />
<glyph unicode="&#xa2;" d="M127 672q0 88 19.5 168t55.5 141t88 103t118 57v192h112v-182q37 -2 74 -11.5t63 -25.5l-28 -125q-31 16 -66 26.5t-76 10.5q-57 0 -96 -34t-62.5 -88t-33.5 -118.5t-10 -126.5q0 -166 54 -259t159 -93q47 0 79.5 9.5t67.5 25.5l21 -119q-59 -35 -148 -41v-190h-112v194 q-47 10 -92.5 35t-84.5 70q-47 55 -74.5 147t-27.5 234z" />
<glyph unicode="&#xa3;" d="M63 0v100q33 14 68 50t62.5 85.5t46 106.5t18.5 115q0 49 -3 89t-9 79h-168v112h151q-10 41 -19 106.5t-9 131.5q0 88 25.5 157.5t68.5 116.5t100.5 73t122.5 26q57 0 97 -12.5t63 -28.5l-35 -127q-18 12 -50 23t-75 11t-74.5 -18t-51 -49t-29 -70t-9.5 -80 q0 -82 8.5 -140t18.5 -120h215v-112h-199q8 -66 7 -132.5t-15 -125.5q-14 -53 -45 -113.5t-84 -114.5v-4h463v-135h-660z" />
<glyph unicode="&#xa5;" d="M31 1331h157l138 -391q45 -123 69 -209h4q12 45 28.5 97.5t39.5 113.5l143 389h150l-262 -608h223v-94h-262v-152h262v-94h-262v-383h-146v383h-256v94h256v152h-256v94h217z" />
<glyph unicode="&#xa8;" horiz-adv-x="614" d="M57 1249q0 41 27 66.5t66 25.5q37 0 61.5 -25.5t24.5 -66.5q0 -39 -24.5 -64.5t-61.5 -25.5q-39 0 -66 25.5t-27 64.5zM377 1249q0 41 26.5 66.5t63.5 25.5t62.5 -25.5t25.5 -66.5q0 -39 -24.5 -64.5t-63.5 -25.5t-64.5 25.5t-25.5 64.5z" />
<glyph unicode="&#xa9;" horiz-adv-x="1386" d="M68 696q0 131 49 246t133 201t198.5 135t247.5 49q131 0 245 -49t198 -135t132 -201t48 -246q0 -133 -48 -248.5t-132 -201.5t-198 -135.5t-245 -49.5q-133 0 -247.5 49.5t-198.5 135.5t-133 201.5t-49 248.5zM170 690q0 -115 40 -214t110.5 -173t167 -116t208.5 -42 q111 0 205 42t165 117t111 175.5t40 216.5q0 113 -40 213.5t-111 174t-165 116.5t-205 43q-113 0 -209 -43t-166.5 -116.5t-110.5 -175t-40 -218.5zM354 684q0 88 31 158.5t85 120t126 76t154 26.5q78 0 138 -17.5t83 -33.5l-25 -82q-23 10 -74 27.5t-124 17.5 q-141 0 -214 -82t-73 -205q0 -61 18.5 -113.5t55 -91.5t90 -61.5t123.5 -22.5q61 0 115.5 14.5t88.5 33.5l25 -76q-53 -33 -117.5 -46.5t-132.5 -13.5q-88 0 -156.5 29t-116.5 80t-74 117.5t-26 144.5z" />
<glyph unicode="&#xab;" horiz-adv-x="724" d="M51 516l211 356h127l-213 -356l213 -356h-129zM342 516l213 356h127l-213 -356l213 -356h-129z" />
<glyph unicode="&#xad;" horiz-adv-x="571" d="M61 473v123h449v-123h-449z" />
<glyph unicode="&#xae;" horiz-adv-x="761" d="M59 1077q0 68 26 126.5t69 101.5t101 67.5t126 24.5t126 -24.5t102 -67.5t68.5 -101.5t24.5 -126.5t-24.5 -126t-68.5 -102t-102 -68.5t-126 -24.5t-126 24.5t-101 68.5t-69 102.5t-26 125.5zM137 1077q0 -53 18.5 -100t51.5 -82t77 -54.5t97 -19.5q51 0 96 19.5t77 54.5 t50.5 82t18.5 100q0 51 -18.5 98.5t-50.5 81t-77 54t-96 20.5q-53 0 -97 -20.5t-77 -54t-51.5 -81t-18.5 -98.5zM262 911v318q20 4 48 8t67 4q43 0 66.5 -7t39.5 -20q14 -10 23.5 -27.5t9.5 -39.5q0 -29 -19.5 -47.5t-47.5 -28.5v-4q25 -8 37 -26.5t20 -51.5q8 -35 13 -52 t9 -26h-71q-8 10 -13.5 30t-11.5 48q-10 49 -67 49h-35v-127h-68zM332 1092h35q31 0 52 10t21 35q0 49 -67 49q-16 0 -25.5 -1t-15.5 -3v-90z" />
<glyph unicode="&#xb4;" horiz-adv-x="614" d="M227 1120l158 277h162l-215 -277h-105z" />
<glyph unicode="&#xb8;" horiz-adv-x="614" d="M145 -369l33 86q49 -31 103 -30q29 0 51 13t22 48q0 41 -41 62.5t-100 27.5l82 172h98l-57 -108q51 -8 92 -47t41 -99q0 -43 -16.5 -73.5t-43 -50t-60.5 -29t-66 -9.5q-39 0 -74 10.5t-64 26.5z" />
<glyph unicode="&#xbb;" horiz-adv-x="724" d="M43 160l213 356l-213 356h127l211 -356l-207 -356h-131zM336 160l213 356l-213 356h127l211 -356l-209 -356h-129z" />
<glyph unicode="&#xd3;" horiz-adv-x="913" d="M66 692q0 172 29.5 303t82.5 220.5t128 135.5t165 46q180 0 278.5 -181.5t98.5 -515.5q0 -195 -32 -329.5t-85 -219.5t-127 -124t-155 -39q-172 0 -277.5 178t-105.5 526zM229 690q0 -109 11.5 -210t38 -181t70.5 -128t110 -48q68 0 110.5 51t68.5 133t36 183.5t10 203.5 q0 96 -10 196.5t-36 181.5t-69.5 133t-111.5 52q-66 0 -109 -49t-69.5 -129t-38 -182t-11.5 -207zM358 1454l193 221h186l-254 -221h-125z" />
<glyph unicode="&#xf3;" horiz-adv-x="784" d="M68 494q0 135 27.5 232t73.5 159.5t105 92.5t125 30t124.5 -32t101.5 -95.5t68.5 -159.5t25.5 -225q0 -143 -31 -240.5t-78 -157t-105.5 -85t-115.5 -25.5q-68 0 -126 29.5t-101 92t-68.5 157.5t-25.5 227zM225 496q0 -61 7.5 -130t25.5 -125.5t52 -94t87 -37.5 q51 0 83 38.5t49.5 97t23.5 126t6 125.5q0 57 -6 123.5t-24.5 125t-51.5 97.5t-84 39q-53 0 -86 -39t-51 -97.5t-24.5 -125t-6.5 -123.5zM315 1120l158 277h162l-215 -277h-105z" />
<glyph unicode="&#x104;" horiz-adv-x="890" d="M45 0l315 1380h175l307 -1380h-47q-12 -16 -28.5 -38.5t-30 -48.5t-24 -53.5t-10.5 -54.5q0 -47 28 -70.5t58 -23.5q49 0 86 19l23 -88q-31 -25 -72 -35t-75 -10q-78 0 -125 45t-47 125q0 37 11 73.5t27.5 69.5t34 59.5t31.5 42.5l-88 402h-305l-92 -414h-152zM311 541 h262l-71 350q-16 74 -29.5 155.5t-26.5 159.5h-8q-12 -78 -26.5 -161.5t-28.5 -153.5z" />
<glyph unicode="&#x105;" horiz-adv-x="745" d="M53 266q0 92 35 160t93.5 113t134 66.5t159.5 21.5v30q0 100 -31.5 163t-126.5 63q-47 0 -88 -14.5t-75 -37.5l-35 111q31 23 94 44.5t137 21.5q150 0 217.5 -93.5t67.5 -261.5v-428q0 -80 3 -132t13 -93h-37q-12 -16 -27.5 -38.5t-27.5 -50.5t-20.5 -57.5t-8.5 -60.5 q0 -47 27 -70.5t57 -23.5q29 0 50.5 5t37.5 13l23 -88q-35 -27 -74 -36t-73 -9q-78 0 -125 45t-47 125q0 39 10 75t25.5 68.5t31.5 58.5t29 44l-10 104h-7q-66 -117 -196 -116q-100 0 -168 74.5t-68 203.5zM207 283q0 -49 11 -82t28.5 -54.5t39 -31t42.5 -9.5q53 0 93 38 t54 112q4 14 4 28.5v26.5v201q-31 0 -77 -5t-90 -28.5t-74.5 -70t-30.5 -125.5z" />
<glyph unicode="&#x106;" horiz-adv-x="763" d="M66 674q0 205 46 342t116.5 221t156.5 120t168 36q63 0 106 -10.5t66 -24.5l-35 -133q-25 10 -55.5 19t-83.5 9q-55 0 -112.5 -28.5t-103.5 -95t-75 -175t-29 -266.5t27 -265.5t72 -173t103.5 -94t121.5 -28.5q45 0 83 9t62 22l25 -133q-63 -33 -197 -33q-102 0 -187 41 t-146.5 125t-95 212t-33.5 304zM397 1454l195 221h186l-256 -221h-125z" />
<glyph unicode="&#x107;" horiz-adv-x="618" d="M68 489q0 106 26.5 200.5t76.5 164.5t123 111t165 41q41 0 78.5 -9.5t60.5 -21.5l-31 -129q-16 8 -44.5 17t-67.5 9q-59 0 -102.5 -32.5t-72 -86t-42 -122t-13.5 -142.5q0 -174 61.5 -272t172.5 -98q33 0 59.5 7t54.5 19l21 -120q-51 -33 -164 -33q-166 0 -264 125 t-98 372zM324 1120l157 277h162l-215 -277h-104z" />
<glyph unicode="&#x118;" horiz-adv-x="724" d="M123 0v1380h526v-137h-368v-455h346v-133h-346v-518h393v-137h-17q-68 -47 -116.5 -100.5t-48.5 -110.5q0 -43 26.5 -62.5t54.5 -19.5q23 0 45.5 4t45.5 15l22 -88q-35 -25 -76 -35.5t-80 -10.5q-76 0 -119.5 42t-43.5 116q0 39 14 76t38.5 69.5t54.5 59.5t61 45h-412z " />
<glyph unicode="&#x119;" horiz-adv-x="743" d="M68 485q0 119 24.5 216.5t68.5 165t105.5 104.5t134.5 37q76 0 130.5 -37t88 -98.5t49 -140.5t15.5 -163v-50t-2 -38h-461q0 -115 20.5 -186.5t54.5 -111.5t76 -55t85 -15q51 0 93 11t71 28l24 -117l-53 -23q-37 -16 -73 -40.5t-62.5 -55.5t-43 -64.5t-16.5 -64.5 q0 -43 23.5 -61.5t52.5 -18.5q49 0 94 27l27 -86q-35 -29 -76 -40t-76 -11q-78 0 -124 42t-46 111q0 37 14.5 73t37 67.5t50 57t54.5 42.5v2h-8q-174 0 -263 133t-89 360zM223 598h309q0 74 -12 128t-32.5 90t-47 52.5t-55.5 16.5q-39 0 -67.5 -25.5t-49 -66.5t-32 -92.5 t-13.5 -102.5z" />
<glyph unicode="&#x141;" horiz-adv-x="718" d="M0 391v144l137 133v712h158v-585l217 209v-146l-217 -207v-518h389v-133h-547v524z" />
<glyph unicode="&#x142;" horiz-adv-x="405" d="M0 477v139l125 132v669h158v-547l129 136v-144l-129 -135v-727h-158v606z" />
<glyph unicode="&#x143;" horiz-adv-x="952" d="M123 0v1380h149l254 -647q43 -111 92.5 -239.5t83.5 -241.5h5q-4 82 -7.5 157.5t-6.5 151.5t-4 156t-1 170v493h141v-1380h-149l-262 664q-41 104 -84 222t-80 247h-4q4 -70 7 -139.5t5 -147.5t3 -168t1 -201v-477h-143zM401 1454l193 221h186l-254 -221h-125z" />
<glyph unicode="&#x144;" horiz-adv-x="829" d="M102 991h138l8 -119h4q33 59 91 97.5t136 38.5q102 0 171 -81t69 -261v-666h-158v639q0 43 -5 86t-20.5 76t-42 53t-69.5 20q-49 0 -91 -40.5t-59 -120.5q-6 -37 -6 -88v-625h-157v735q0 43 -1 78t-3.5 64.5t-3.5 56.5t-1 57zM348 1120l158 277h162l-215 -277h-105z" />
<glyph unicode="&#x15a;" horiz-adv-x="739" d="M57 47l35 135q35 -23 90.5 -39t108.5 -16q111 0 170 64.5t59 168.5q0 96 -49 162t-133 125q-41 29 -87 67t-84 86t-63.5 105.5t-25.5 124.5q0 78 26.5 144.5t73.5 114.5t114.5 76t149.5 28q66 0 118 -16.5t77 -35.5l-39 -135q-27 18 -69 32.5t-95 14.5q-51 0 -88 -17 t-61.5 -45t-36.5 -63.5t-12 -70.5q0 -51 13 -89t38.5 -70t63.5 -61.5t87 -64.5q125 -88 182.5 -184t57.5 -213q0 -90 -30 -161t-82 -120t-122.5 -75.5t-152.5 -26.5q-72 0 -138.5 16.5t-95.5 38.5zM276 1454l195 221h186l-256 -221h-125z" />
<glyph unicode="&#x15b;" horiz-adv-x="591" d="M45 45l39 119q27 -16 70 -33.5t90 -17.5q68 0 106.5 38.5t38.5 104.5q0 57 -25.5 101t-101.5 94q-98 66 -148.5 131t-50.5 151q0 59 20.5 109.5t57.5 87.5t86 57.5t109 20.5q59 0 103 -16.5t75 -35.5l-43 -118q-29 18 -60.5 30.5t-70.5 12.5q-66 0 -97.5 -39t-31.5 -86 q0 -51 23.5 -87t99.5 -85q43 -29 80 -59.5t64.5 -67.5t44 -80t16.5 -94q0 -74 -23.5 -129.5t-64.5 -91t-94.5 -53t-114.5 -17.5q-55 0 -109.5 13t-87.5 40zM231 1120l158 277h162l-215 -277h-105z" />
<glyph unicode="&#x179;" horiz-adv-x="733" d="M41 0v94l473 1145v6h-434v135h610v-106l-465 -1133v-6h463v-135h-647zM287 1454l194 221h187l-256 -221h-125z" />
<glyph unicode="&#x17a;" horiz-adv-x="641" d="M33 0v96l313 613q20 39 42 75.5t38 71.5v4h-354v131h528v-104l-309 -604q-20 -39 -42 -76t-38 -72v-4h389v-131h-567zM266 1120l158 277h162l-215 -277h-105z" />
<glyph unicode="&#x17b;" horiz-adv-x="733" d="M41 0v94l473 1145v6h-434v135h610v-106l-465 -1133v-6h463v-135h-647zM303 1569q0 39 26.5 65.5t65.5 26.5t64.5 -26.5t25.5 -65.5q0 -37 -25.5 -64.5t-64.5 -27.5t-65.5 27.5t-26.5 64.5z" />
<glyph unicode="&#x17c;" horiz-adv-x="641" d="M33 0v96l313 613q20 39 42 75.5t38 71.5v4h-354v131h528v-104l-309 -604q-20 -39 -42 -76t-38 -72v-4h389v-131h-567zM240 1249q0 41 26.5 66.5t63.5 25.5t62.5 -25.5t25.5 -66.5q0 -39 -24.5 -64.5t-63.5 -25.5t-64.5 25.5t-25.5 64.5z" />
<glyph unicode="&#x2c6;" horiz-adv-x="614" d="M92 1120l162 277h106l162 -277h-116l-97 176h-4l-94 -176h-119z" />
<glyph unicode="&#x2da;" horiz-adv-x="614" d="M49 1266q0 76 50.5 129t142.5 53q86 0 136 -52.5t50 -127.5q0 -76 -53 -126t-135 -50q-88 0 -139.5 51t-51.5 123zM143 1266q0 -37 25 -70t70 -33q47 0 72.5 32t25.5 75q0 41 -24.5 73.5t-75.5 32.5q-45 0 -69 -34.5t-24 -75.5z" />
<glyph unicode="&#x2dc;" horiz-adv-x="614" d="M86 1149q-2 82 29.5 137t95.5 55q33 0 55.5 -11t44.5 -23q23 -14 41.5 -24.5t40.5 -10.5q23 0 35 14t16 60h84q0 -86 -31.5 -135.5t-97.5 -49.5q-29 0 -53 11.5t-47 23.5t-40 23.5t-36 11.5q-45 0 -51 -82h-86z" />
<glyph unicode="&#x2000;" horiz-adv-x="837" />
<glyph unicode="&#x2001;" horiz-adv-x="1675" />
<glyph unicode="&#x2002;" horiz-adv-x="837" />
<glyph unicode="&#x2003;" horiz-adv-x="1675" />
<glyph unicode="&#x2004;" horiz-adv-x="558" />
<glyph unicode="&#x2005;" horiz-adv-x="418" />
<glyph unicode="&#x2006;" horiz-adv-x="279" />
<glyph unicode="&#x2007;" horiz-adv-x="279" />
<glyph unicode="&#x2008;" horiz-adv-x="209" />
<glyph unicode="&#x2009;" horiz-adv-x="335" />
<glyph unicode="&#x200a;" horiz-adv-x="93" />
<glyph unicode="&#x2010;" horiz-adv-x="571" d="M61 473v123h449v-123h-449z" />
<glyph unicode="&#x2011;" horiz-adv-x="571" d="M61 473v123h449v-123h-449z" />
<glyph unicode="&#x2012;" horiz-adv-x="571" d="M61 473v123h449v-123h-449z" />
<glyph unicode="&#x2013;" horiz-adv-x="1024" d="M61 475v115h902v-115h-902z" />
<glyph unicode="&#x2014;" horiz-adv-x="2048" d="M61 475v115h1926v-115h-1926z" />
<glyph unicode="&#x2018;" horiz-adv-x="362" d="M45 911q16 61 40 130t49.5 133.5t50 120t44.5 89.5l95 13q-16 -45 -34 -103.5t-34 -121t-29.5 -125t-21.5 -115.5z" />
<glyph unicode="&#x2019;" horiz-adv-x="362" d="M41 911q16 45 33.5 103.5t34 122t30 127t21.5 116.5l159 17q-16 -61 -39.5 -130t-49 -133.5t-50 -120t-45.5 -87.5z" />
<glyph unicode="&#x201a;" horiz-adv-x="362" d="M41 -242q16 45 33.5 102.5t34 119t30 124t21.5 115.5l159 21q-16 -61 -39.5 -130t-49 -131.5t-50 -117t-45.5 -88.5z" />
<glyph unicode="&#x201c;" horiz-adv-x="628" d="M41 911q16 61 39.5 130t49.5 133.5t51.5 120t45.5 89.5l92 13q-16 -45 -33.5 -103.5t-33.5 -121t-29.5 -125t-21.5 -115.5zM313 911q16 61 40 130t49.5 133.5t50 120t45.5 89.5l94 13q-16 -45 -33.5 -103.5t-34 -121t-30 -125t-21.5 -115.5z" />
<glyph unicode="&#x201d;" horiz-adv-x="628" d="M39 911q14 45 31.5 104.5t33 122t29.5 126t23 116.5l161 17q-16 -61 -39.5 -130t-49 -133.5t-51 -120t-46.5 -87.5zM309 911q16 45 33.5 103.5t34 122t30 127t21.5 116.5l160 17q-16 -61 -40 -130t-49.5 -133.5t-50 -120t-45.5 -87.5z" />
<glyph unicode="&#x201e;" horiz-adv-x="628" d="M39 -242q14 45 31.5 102.5t33 119t29.5 124t23 115.5l161 21q-16 -61 -39.5 -129t-49 -132.5t-51 -119t-46.5 -86.5zM309 -242q16 45 33.5 102.5t34 119t30 124t21.5 115.5l160 21q-16 -61 -40 -130t-49.5 -131.5t-50 -117t-45.5 -88.5z" />
<glyph unicode="&#x2026;" horiz-adv-x="2048" d="M238 102q0 53 29.5 86t74.5 33q47 0 75.5 -32.5t28.5 -86.5q0 -53 -28.5 -83.5t-75.5 -30.5q-45 0 -74.5 30.5t-29.5 83.5zM920 102q0 53 30.5 86t73.5 33q47 0 75.5 -32.5t28.5 -86.5q0 -53 -27.5 -83.5t-76.5 -30.5q-45 0 -74.5 30.5t-29.5 83.5zM1604 102 q0 53 29.5 86t74.5 33q47 0 74.5 -32.5t27.5 -86.5q0 -53 -27.5 -83.5t-76.5 -30.5q-45 0 -73.5 30.5t-28.5 83.5z" />
<glyph unicode="&#x202f;" horiz-adv-x="335" />
<glyph unicode="&#x2039;" horiz-adv-x="430" d="M51 516l211 356h127l-213 -356l213 -356h-129z" />
<glyph unicode="&#x203a;" horiz-adv-x="430" d="M41 160l213 356l-213 356h127l213 -356l-209 -356h-131z" />
<glyph unicode="&#x205f;" horiz-adv-x="418" />
<glyph unicode="&#x20ac;" d="M35 518v98h94v29v46.5t2 41.5h-96v96h104q16 141 57.5 232.5t90.5 150.5q59 72 129.5 104t156.5 32q59 0 102.5 -16.5t72.5 -33.5l-35 -129q-20 14 -60.5 27.5t-81.5 13.5q-94 0 -165 -77q-37 -43 -67 -115t-42 -189h346v-96h-354q-2 -16 -2 -35.5v-42.5v-39h356v-98 h-350q8 -111 29.5 -179.5t54.5 -115.5q41 -59 92 -80.5t104 -21.5q47 0 92.5 15.5t67.5 29.5l27 -125q-29 -18 -84 -35.5t-121 -17.5q-78 0 -150.5 28.5t-134.5 100.5q-53 61 -88 157.5t-47 243.5h-100z" />
<glyph unicode="&#x2122;" horiz-adv-x="1042" d="M51 1292v88h365v-88h-133v-469h-99v469h-133zM449 823l32 557h148l67 -264q10 -35 15.5 -65.5t13.5 -75.5h2q8 39 14.5 74.5t14.5 64.5l69 266h142l32 -557h-96l-16 328l-4 156h-4q-8 -41 -16.5 -86t-18.5 -80l-74 -310h-100l-74 318q-8 33 -15.5 77t-15.5 81h-4 q0 -39 -1 -78t-3 -78l-16 -328h-92z" />
<glyph unicode="&#xe000;" horiz-adv-x="993" d="M0 0v993h993v-993h-993z" />
</font>
</defs>
</svg>
